<?xml version="1.0" encoding="utf-8"?>
<!-- Generator: Adobe Illustrator 21.0.0, SVG Export Plug-In . SVG Version: 6.00 Build 0)  -->
<svg version="1.1" id="Camada_1" xmlns="http://www.w3.org/2000/svg" xmlns:xlink="http://www.w3.org/1999/xlink" x="0px" y="0px"
	 viewBox="0 0 1366 768" style="enable-background:new 0 0 1366 768;" xml:space="preserve">
<style type="text/css">
	.st0{fill:none;stroke:#000000;stroke-miterlimit:10;}
</style>
<g>
	<g>
		<path d="M558.4,376.2l-7.4,9.2h16.8v11.3c-4,2.8-9.7,4.6-15.9,4.6c-13.4,0-22.4-9.2-22.4-21.6v-0.2c0-11.6,9.2-21.3,21.3-21.3
			c8.4,0,13.3,2.5,18.4,6.5l7.3-8c-6.8-5.3-13.8-8.2-25.3-8.2c-11.1,0-20.4,4.5-26.4,11.4l-5.2-11.1h-13.6l-28.5,61.6v-48.7h20.4
			l5.8-12.5h-65.4v12.5h24.4v49.1h29.6l3.9-8.8l7.5-17h0l8.9-20l4.9,10.9c-0.2,1.3-0.2,2.5-0.2,3.8v0.2c0,17.6,13.5,31.1,34.1,31.1
			c11.7,0,21-4.3,27.4-9.4v-25.4H558.4z"/>
	</g>
	<g>
		<path class="st0" d="M558.4,376.2l-7.4,9.2h16.8v11.3c-4,2.8-9.7,4.6-15.9,4.6c-13.4,0-22.4-9.2-22.4-21.6v-0.2
			c0-11.6,9.2-21.3,21.3-21.3c8.4,0,13.3,2.5,18.4,6.5l7.3-8c-6.8-5.3-13.8-8.2-25.3-8.2c-11.1,0-20.4,4.5-26.4,11.4l-5.2-11.1
			h-13.6l-28.5,61.6v-48.7h20.4l5.8-12.5h-65.4v12.5h24.4v49.1h29.6l3.9-8.8l7.5-17h0l8.9-20l4.9,10.9c-0.2,1.3-0.2,2.5-0.2,3.8v0.2
			c0,17.6,13.5,31.1,34.1,31.1c11.7,0,21-4.3,27.4-9.4v-25.4H558.4z"/>
	</g>
</g>
</svg>
